# xmcd
#
# Track frame offsets:
#	150
#	14122
#	20441
#	35377
#	55184
#	64638
#	77132
#	91031
#	102720
#	114382
#	125477
#	134241
#	145662
#	158118
#
# Disc length: 2280 seconds
#
# Revision: 2
# Processed by: cddbd v1.4PL0 Copyright (c) Steve Scherf et al.
# Submitted via: CDmax 2.0
#
DISCID=bf08e60e
DTITLE=The White Brothers - The New Kentucky Colonels Live in Sweden 1973
DYEAR=1976
DGENRE=Country
TTITLE0=Tell me Baby Why You Been Gone So Long
TTITLE1=Banjo Boy Chimes
TTITLE2=Last Thing on my Mind
TTITLE3=Sally Goodin
TTITLE4=Take a Whiff on me
TTITLE5=Rawhide
TTITLE6=If You're Ever Gonna Love me
TTITLE7=I'm Blue, I'm Lonesome
TTITLE8=Alabama Jubilee
TTITLE9=You Won't be Satisfied That Way
TTITLE10=Soldier's Joy/Black Mountain Rag
TTITLE11=I Know What it Means to be Lonesome
TTITLE12=Blackberry Blossom
TTITLE13=New River Train
EXTD=
EXTT0=
EXTT1=
EXTT2=
EXTT3=
EXTT4=
EXTT5=
EXTT6=
EXTT7=
EXTT8=
EXTT9=
EXTT10=
EXTT11=
EXTT12=
EXTT13=
PLAYORDER=
